<?xml version="1.0" encoding="UTF-8" standalone="no"?>
<!DOCTYPE svg PUBLIC "-//W3C//DTD SVG 20010904//EN"
              "http://www.w3.org/TR/2001/REC-SVG-20010904/DTD/svg10.dtd">

<svg xmlns="http://www.w3.org/2000/svg"
     width="462.081mm" height="462.081mm"
     viewBox="0 0 1310 1310">
  <path id="Selection #1"
        fill="#ffa94d"
        d="M 643.00,41.42
           C 658.62,39.52 676.18,41.82 692.00,42.00
             692.00,42.00 714.00,43.83 714.00,43.83
             749.11,47.19 780.73,52.56 815.00,61.13
             1033.86,115.84 1206.80,291.69 1261.37,510.00
             1270.61,546.94 1277.38,584.94 1279.04,623.00
             1279.04,623.00 1280.00,634.00 1280.00,634.00
             1280.00,634.00 1280.00,689.00 1280.00,689.00
             1280.00,689.00 1279.09,701.00 1279.09,701.00
             1279.09,701.00 1276.16,735.00 1276.16,735.00
             1272.23,771.83 1262.97,813.62 1251.98,849.00
             1223.71,939.92 1175.88,1019.45 1111.09,1089.00
             1111.09,1089.00 1093.00,1107.96 1093.00,1107.96
             1068.38,1131.51 1041.92,1153.18 1014.00,1172.72
             990.84,1188.93 966.30,1203.98 941.00,1216.63
             916.13,1229.06 890.20,1239.99 864.00,1249.31
             826.89,1262.51 780.09,1273.18 741.00,1278.28
             741.00,1278.28 701.00,1282.09 701.00,1282.09
             701.00,1282.09 691.00,1283.04 691.00,1283.04
             691.00,1283.04 679.00,1283.04 679.00,1283.04
             679.00,1283.04 667.00,1284.00 667.00,1284.00
             667.00,1284.00 649.00,1284.00 649.00,1284.00
             649.00,1284.00 639.00,1283.04 639.00,1283.04
             639.00,1283.04 627.00,1283.04 627.00,1283.04
             627.00,1283.04 617.00,1282.09 617.00,1282.09
             617.00,1282.09 570.00,1277.27 570.00,1277.27
             532.95,1271.93 496.51,1263.17 461.00,1251.33
             402.26,1231.75 344.89,1202.89 295.00,1166.12
             226.38,1115.53 172.31,1057.79 127.81,985.00
             21.04,810.36 9.02,588.76 94.31,403.00
             167.92,242.68 306.73,121.33 475.00,69.02
             510.43,58.01 552.10,49.11 589.00,45.16
             589.00,45.16 617.00,42.91 617.00,42.91
             617.00,42.91 628.00,42.00 628.00,42.00
             633.39,41.98 637.58,42.19 643.00,41.42 Z
           M 644.00,51.14
           C 638.03,52.14 635.88,51.99 630.00,52.00
             630.00,52.00 618.00,52.91 618.00,52.91
             618.00,52.91 590.00,55.16 590.00,55.16
             550.34,59.41 511.06,68.19 473.00,80.02
             473.00,80.02 430.00,95.80 430.00,95.80
             289.20,152.12 174.28,260.60 108.26,397.00
             84.84,445.37 68.27,497.22 58.39,550.00
             53.70,575.08 49.29,607.65 49.00,633.00
             49.00,633.00 48.00,648.00 48.00,648.00
             48.00,648.00 48.00,677.00 48.00,677.00
             48.00,677.00 49.00,698.00 49.00,698.00
             49.00,698.00 49.91,708.00 49.91,708.00
             52.05,739.13 56.84,769.52 63.58,800.00
             88.80,914.20 153.50,1027.26 239.00,1106.91
             302.92,1166.46 371.12,1208.10 453.00,1238.05
             490.63,1251.82 531.35,1261.55 571.00,1267.27
             571.00,1267.27 618.00,1272.09 618.00,1272.09
             618.00,1272.09 628.00,1273.04 628.00,1273.04
             628.00,1273.04 640.00,1273.04 640.00,1273.04
             640.00,1273.04 652.00,1274.00 652.00,1274.00
             652.00,1274.00 690.00,1273.00 690.00,1273.00
             690.00,1273.00 700.00,1272.09 700.00,1272.09
             700.00,1272.09 733.00,1269.16 733.00,1269.16
             775.15,1264.65 825.06,1252.53 865.00,1238.31
             1040.26,1175.89 1181.09,1032.90 1239.33,856.00
             1253.43,813.18 1262.69,768.83 1267.17,724.00
             1267.17,724.00 1269.00,707.00 1269.00,707.00
             1269.00,707.00 1269.00,698.00 1269.00,698.00
             1269.00,698.00 1270.00,686.00 1270.00,686.00
             1270.00,686.00 1270.00,637.00 1270.00,637.00
             1270.00,637.00 1269.04,626.00 1269.04,626.00
             1267.33,586.66 1260.89,547.12 1250.88,509.00
             1239.79,466.75 1224.80,424.88 1204.74,386.00
             1122.96,227.51 981.18,112.92 808.00,69.63
             772.68,60.80 737.27,55.39 701.00,52.91
             701.00,52.91 691.00,51.96 691.00,51.96
             691.00,51.96 679.00,51.96 679.00,51.96
             679.00,51.96 667.00,51.14 667.00,51.14
             667.00,51.14 644.00,51.14 644.00,51.14 Z
           M 444.00,432.00
           C 451.67,429.19 454.07,425.58 463.00,426.04
             469.25,426.37 478.77,432.55 484.00,436.12
             486.03,437.51 490.67,441.29 493.19,440.45
             495.45,439.70 501.28,431.31 503.29,429.00
             510.13,421.13 521.06,412.02 532.00,412.01
             539.84,412.00 551.00,417.54 558.00,421.31
             560.89,422.86 567.70,427.62 570.87,426.59
             573.36,425.78 574.73,422.21 575.72,420.00
             579.17,412.25 580.18,410.32 584.60,403.00
             592.96,389.18 609.61,373.58 626.00,370.62
             651.90,365.93 667.59,381.50 687.00,395.58
             687.00,395.58 704.00,408.78 704.00,408.78
             705.73,410.10 708.42,412.46 710.78,411.68
             712.88,410.98 713.99,407.94 714.47,406.00
             714.47,406.00 716.00,387.00 716.00,387.00
             716.00,387.00 716.00,381.00 716.00,381.00
             716.00,381.00 717.00,366.00 717.00,366.00
             717.00,366.00 717.00,346.00 717.00,346.00
             717.00,346.00 718.00,326.00 718.00,326.00
             718.32,299.11 732.41,263.55 756.00,249.07
             771.63,239.47 777.06,245.85 791.00,253.85
             800.64,259.38 805.98,260.18 806.00,272.00
             806.00,272.00 806.00,287.00 806.00,287.00
             806.00,287.00 805.00,304.00 805.00,304.00
             805.06,307.15 805.08,310.16 808.15,311.98
             808.15,311.98 825.00,316.20 825.00,316.20
             834.23,319.80 836.64,322.03 845.00,326.25
             846.69,327.10 851.37,329.71 852.96,329.87
             857.42,330.34 861.63,319.45 863.86,316.00
             870.69,305.49 884.95,290.67 896.00,284.80
             898.15,283.65 900.53,282.49 903.00,282.38
             909.71,282.09 922.87,292.21 929.00,296.05
             931.32,297.51 936.30,301.16 939.00,300.91
             942.22,300.60 947.31,294.56 950.00,292.32
             954.84,288.29 968.02,280.41 974.00,278.57
             987.64,274.37 995.08,282.78 1006.00,289.58
             1009.83,291.96 1016.29,294.55 1017.57,299.04
             1018.42,302.03 1017.02,309.97 1016.96,314.00
             1016.96,314.00 1016.96,327.00 1016.96,327.00
             1016.96,327.00 1016.00,339.00 1016.00,339.00
             1016.00,339.00 1016.00,355.00 1016.00,355.00
             1016.00,355.00 1014.00,387.00 1014.00,387.00
             1014.00,387.00 1013.00,420.00 1013.00,420.00
             1013.00,420.00 1012.00,437.00 1012.00,437.00
             1011.98,448.35 1009.34,463.07 1012.00,474.00
             1017.43,472.10 1029.33,464.92 1033.00,465.28
             1037.60,465.71 1045.20,472.46 1049.00,475.42
             1053.95,479.28 1068.49,489.82 1070.40,495.00
             1071.87,498.99 1070.23,507.01 1068.91,511.00
             1061.45,533.57 1038.94,550.72 1015.00,551.00
             1005.74,551.10 1001.15,551.41 992.00,549.11
             988.39,548.20 981.05,545.02 978.00,545.61
             975.04,546.18 970.64,549.75 968.00,551.48
             966.38,552.55 961.51,555.15 960.63,556.46
             957.99,560.39 967.37,565.26 970.00,567.14
             970.00,567.14 991.00,582.13 991.00,582.13
             995.96,585.84 999.77,588.02 1002.24,594.00
             1008.57,609.33 1000.88,636.83 993.36,651.00
             993.36,651.00 985.33,664.00 985.33,664.00
             984.19,665.71 981.67,669.01 981.51,671.00
             981.29,674.01 987.34,680.79 989.10,684.00
             992.02,689.33 996.14,702.87 997.00,709.00
             1009.16,709.04 1012.96,713.38 1022.00,720.92
             1026.61,724.76 1039.71,735.76 1041.35,741.00
             1043.18,746.86 1039.13,761.30 1036.72,767.00
             1026.28,791.67 1008.18,805.31 981.00,805.00
             971.15,804.88 964.16,800.30 956.00,795.40
             942.97,787.58 931.16,781.04 922.36,768.00
             918.13,761.74 914.61,752.23 912.08,745.00
             911.44,743.18 910.43,738.20 907.96,738.20
             906.42,738.20 905.14,740.03 904.25,741.06
             904.25,741.06 896.00,750.00 896.00,750.00
             889.22,756.79 872.13,770.80 863.00,773.36
             855.59,775.45 849.41,769.02 844.00,764.79
             842.05,763.27 838.55,760.06 836.00,760.16
             832.96,760.28 823.85,768.90 821.00,771.20
             809.23,780.66 802.33,785.68 788.00,790.78
             777.66,794.46 768.81,795.12 758.00,795.00
             751.95,794.93 747.77,793.63 742.00,792.12
             739.89,791.56 736.16,790.22 734.10,790.78
             730.91,791.66 727.66,798.23 725.48,801.00
             720.34,807.54 712.37,815.45 705.00,819.37
             695.95,824.19 682.33,828.92 672.00,828.92
             672.00,828.92 654.00,826.73 654.00,826.73
             650.89,827.12 646.83,830.64 644.00,832.38
             638.56,835.73 635.29,837.22 629.00,838.39
             626.38,838.87 620.50,839.76 618.00,839.63
             602.07,838.76 581.07,822.90 567.00,815.00
             554.01,847.48 527.77,879.44 494.00,891.46
             485.51,894.48 460.98,898.96 452.00,899.13
             452.00,899.13 439.00,899.13 439.00,899.13
             421.47,899.90 413.24,895.89 398.00,888.25
             392.49,885.49 383.86,880.80 379.00,877.24
             358.33,862.12 335.52,832.56 319.63,812.01
             318.02,809.94 316.84,808.42 314.83,806.68
             314.83,806.68 284.00,785.43 284.00,785.43
             273.61,778.23 267.10,775.43 268.10,761.00
             268.39,756.72 270.32,751.69 272.46,748.00
             281.40,732.59 299.28,729.31 315.00,735.88
             338.10,745.53 340.92,760.02 351.26,780.00
             351.26,780.00 368.42,809.00 368.42,809.00
             374.53,818.80 382.23,830.09 393.00,835.00
             394.70,828.02 393.64,823.77 393.95,817.00
             394.29,814.02 395.29,810.98 393.95,808.17
             392.04,804.81 382.34,797.37 379.00,794.56
             369.20,786.31 355.42,775.06 349.31,764.00
             343.98,754.35 340.76,744.10 341.01,733.00
             341.67,704.20 363.12,676.66 387.00,662.45
             401.82,653.63 407.72,654.05 423.00,650.00
             417.46,645.82 407.01,642.90 400.00,640.01
             397.46,638.96 392.66,636.58 390.01,637.40
             387.27,638.24 383.92,642.78 382.00,645.00
             377.23,650.52 372.69,654.94 367.00,659.53
             350.78,672.63 329.72,680.50 309.00,681.26
             293.98,681.80 282.05,672.21 270.00,664.34
             251.73,652.41 228.58,641.03 228.01,616.00
             227.88,609.90 228.56,605.75 230.71,600.00
             232.39,595.50 235.44,590.72 238.47,587.00
             252.08,570.25 273.61,561.34 295.00,561.34
             295.00,561.34 320.00,565.00 320.00,565.00
             320.00,565.00 320.00,557.00 320.00,557.00
             320.00,554.72 320.21,551.24 318.98,549.27
             317.31,546.62 301.93,541.54 298.00,539.85
             276.38,530.56 257.07,520.74 240.17,503.83
             222.13,485.79 204.31,457.33 204.00,431.00
             204.00,431.00 203.10,415.00 203.10,415.00
             203.70,401.39 207.08,387.50 212.43,375.00
             215.87,366.95 221.12,358.99 226.37,352.00
             230.36,346.70 236.13,339.54 241.00,335.17
             257.41,320.46 281.19,313.03 303.00,313.00
             310.40,312.99 315.72,313.21 323.00,315.00
             324.99,306.92 325.78,296.40 329.67,289.00
             332.79,283.07 343.78,274.75 350.00,272.22
             357.67,269.11 366.51,272.12 374.00,274.12
             391.06,278.67 403.53,286.69 418.00,296.33
             425.07,301.04 431.95,304.71 436.75,312.00
             441.13,318.64 444.71,335.80 446.08,344.00
             449.37,363.70 450.74,381.06 448.83,401.00
             448.83,401.00 444.00,432.00 444.00,432.00 Z
           M 766.00,260.00
           C 756.41,260.69 750.30,269.55 745.36,277.00
             737.12,289.41 731.08,304.99 731.00,320.00
             731.00,320.00 730.00,344.00 730.00,344.00
             730.00,344.00 729.00,361.00 729.00,361.00
             729.00,361.00 728.00,380.00 728.00,380.00
             728.00,380.00 728.00,394.00 728.00,394.00
             727.78,412.44 722.52,417.30 715.31,433.00
             705.57,454.21 696.19,473.27 683.57,493.00
             679.65,499.12 673.85,506.70 668.91,512.00
             666.19,514.92 660.04,521.15 657.00,523.39
             642.63,533.96 630.82,530.08 623.44,514.00
             616.45,498.78 616.81,477.60 617.00,461.00
             617.17,446.58 621.24,425.32 630.47,414.00
             637.86,404.93 647.73,400.54 654.91,413.00
             663.09,427.17 650.95,448.67 652.26,457.99
             653.15,464.30 657.93,463.86 661.62,459.87
             663.59,457.74 666.36,452.69 667.74,450.00
             671.88,441.93 672.38,438.86 673.08,430.00
             673.08,430.00 673.82,423.00 673.82,423.00
             673.82,409.41 665.89,396.38 655.00,388.72
             648.56,384.19 642.98,381.56 635.00,381.09
             620.59,380.25 608.60,389.47 599.92,400.00
             584.24,419.02 578.46,443.82 577.21,468.00
             577.21,468.00 578.08,481.00 578.08,481.00
             578.08,481.00 578.08,492.00 578.08,492.00
             579.09,501.65 581.39,506.47 577.55,516.00
             573.51,526.00 562.09,547.44 554.83,554.91
             551.05,558.80 543.46,564.59 538.11,560.53
             532.54,556.31 532.01,546.42 532.00,540.00
             532.00,540.00 532.00,521.00 532.00,521.00
             532.00,521.00 533.00,505.00 533.00,505.00
             533.00,505.00 533.00,475.00 533.00,475.00
             533.00,475.00 534.00,462.00 534.00,462.00
             534.00,462.00 534.00,431.00 534.00,431.00
             533.92,419.47 528.14,422.30 521.00,427.61
             512.59,433.85 504.24,445.09 500.70,455.00
             496.61,466.44 497.00,478.07 497.00,490.00
             497.00,490.00 497.00,533.00 497.00,533.00
             497.00,533.00 496.09,544.00 496.09,544.00
             495.47,553.01 496.42,557.28 489.79,565.00
             483.36,572.48 470.33,580.75 465.26,567.00
             463.96,563.47 464.01,559.70 463.99,556.00
             463.99,556.00 463.99,454.00 463.99,454.00
             464.00,450.86 465.52,440.43 463.99,438.64
             461.67,435.96 456.07,439.82 454.00,441.30
             444.16,448.33 440.31,454.37 435.26,465.00
             428.86,478.46 429.98,493.53 430.00,508.00
             430.00,508.00 431.00,525.00 431.00,525.00
             431.00,525.00 431.00,541.00 431.00,541.00
             431.00,541.00 432.00,559.00 432.00,559.00
             432.33,586.30 460.49,601.59 480.00,592.82
             484.54,590.77 493.99,583.83 498.00,580.54
             499.86,579.01 503.81,574.91 506.00,574.62
             509.12,574.21 512.04,578.74 514.17,580.67
             518.08,584.23 523.66,586.70 529.00,586.66
             533.88,586.62 541.62,583.43 546.00,581.24
             562.01,573.24 574.37,557.18 581.42,541.00
             583.71,535.75 585.92,532.77 587.00,527.00
             592.30,529.63 595.60,534.94 600.00,538.82
             606.71,544.73 614.15,548.27 623.00,549.36
             627.03,550.15 628.16,549.61 632.00,549.36
             645.42,547.55 653.54,542.57 664.00,534.19
             681.88,519.87 692.32,505.19 702.74,485.00
             709.49,471.92 717.17,451.79 726.00,441.00
             728.42,450.96 726.02,459.22 726.00,469.00
             726.00,469.00 726.00,494.00 726.00,494.00
             726.00,496.39 725.77,500.58 727.17,502.56
             730.46,507.16 738.90,501.10 742.00,498.84
             751.48,491.92 757.70,481.01 761.33,470.00
             762.18,467.41 764.33,456.79 765.60,455.69
             768.19,453.45 773.63,456.44 776.00,457.97
             799.82,473.32 784.75,508.83 803.02,524.79
             807.41,528.62 812.49,530.46 818.00,531.99
             825.81,534.16 828.14,534.00 836.00,534.00
             835.07,527.23 829.07,518.58 827.28,508.00
             826.12,501.10 825.01,494.00 825.00,487.00
             824.98,472.11 822.70,451.20 808.00,443.26
             804.49,441.37 798.97,440.54 795.00,440.00
             795.00,440.00 814.84,416.00 814.84,416.00
             818.31,411.23 820.17,407.21 822.75,402.00
             831.93,383.52 840.91,349.48 825.67,332.04
             813.55,318.17 794.14,323.91 782.00,334.30
             782.00,334.30 768.77,347.09 768.77,347.09
             765.42,348.70 765.10,344.08 765.02,342.00
             765.02,342.00 766.00,325.00 766.00,325.00
             766.00,325.00 766.00,260.00 766.00,260.00 Z
           M 331.00,580.00
           C 331.00,580.00 310.00,574.46 310.00,574.46
             293.93,571.38 273.81,572.72 260.00,582.22
             255.97,584.99 250.22,590.24 247.12,594.04
             244.50,597.25 243.07,600.12 241.70,604.00
             231.12,634.00 269.68,651.54 294.00,650.99
             312.76,650.56 330.28,642.29 345.00,631.10
             348.44,628.48 355.97,622.06 358.83,618.99
             361.00,616.65 363.55,612.64 367.00,612.43
             369.80,612.27 380.68,618.13 384.00,619.58
             384.00,619.58 428.00,637.66 428.00,637.66
             443.28,642.94 475.24,650.98 491.00,651.00
             491.00,651.00 518.00,651.00 518.00,651.00
             535.22,650.97 565.56,644.27 581.00,636.74
             596.77,629.05 608.68,615.46 607.96,597.00
             607.75,591.62 605.79,583.67 603.10,579.02
             601.90,576.95 599.99,573.97 597.17,575.17
             595.27,575.98 592.65,580.24 591.36,582.00
             591.36,582.00 579.83,596.00 579.83,596.00
             570.53,606.28 559.45,613.34 547.00,619.22
             531.70,626.45 502.87,634.69 486.00,633.96
             463.58,632.99 433.92,622.42 413.00,614.20
             413.00,614.20 384.00,602.57 384.00,602.57
             380.97,601.28 374.67,598.51 373.00,595.67
             371.61,593.21 372.83,588.89 373.00,586.00
             373.41,576.03 374.18,574.53 373.66,564.00
             373.66,564.00 373.66,555.00 373.66,555.00
             373.66,555.00 373.01,544.00 373.01,544.00
             373.01,544.00 374.00,529.00 374.00,529.00
             374.00,529.00 374.00,501.00 374.00,501.00
             374.15,493.24 379.85,488.47 383.95,482.00
             388.39,474.99 395.36,459.94 398.72,452.00
             416.16,410.80 418.85,363.66 401.00,322.00
             398.00,315.00 395.43,310.43 391.42,304.00
             391.42,304.00 384.39,293.21 384.39,293.21
             378.94,286.96 368.15,283.12 360.00,282.52
             342.03,281.19 337.62,296.76 335.58,311.00
             335.11,314.28 335.39,322.34 333.26,324.36
             331.36,326.17 327.38,325.20 325.00,324.87
             317.68,323.87 310.40,322.92 303.00,323.00
             290.33,323.15 268.62,328.82 258.00,335.70
             233.96,351.26 215.34,386.33 215.00,415.00
             214.57,451.66 231.36,480.46 259.00,503.70
             273.99,516.31 299.52,523.90 319.00,524.00
             328.81,524.05 330.98,523.45 331.00,534.00
             331.00,534.00 331.00,580.00 331.00,580.00 Z
           M 1031.00,479.00
           C 1024.93,480.45 1023.33,482.61 1018.00,485.11
             1008.33,489.65 997.78,493.23 987.00,492.99
             982.32,492.88 972.68,491.93 970.89,486.89
             970.11,485.13 971.00,476.82 970.89,474.00
             970.89,474.00 972.00,452.00 972.00,452.00
             972.00,452.00 972.00,434.00 972.00,434.00
             972.00,434.00 973.00,418.00 973.00,418.00
             973.00,418.00 973.00,392.00 973.00,392.00
             973.00,392.00 974.00,377.00 974.00,377.00
             974.00,377.00 974.00,360.00 974.00,360.00
             974.00,360.00 975.00,345.00 975.00,345.00
             975.00,345.00 975.00,318.00 975.00,318.00
             975.00,318.00 976.00,303.00 976.00,303.00
             976.02,300.70 976.53,294.45 974.40,293.13
             971.88,291.56 967.02,295.31 965.00,296.72
             956.08,302.95 952.13,308.07 946.21,317.00
             932.31,337.92 933.11,356.19 933.00,380.00
             933.00,380.00 931.27,401.00 931.27,401.00
             930.14,404.05 924.84,410.27 922.57,413.00
             919.77,416.36 913.29,424.79 909.00,425.48
             901.45,426.71 901.01,412.75 901.00,408.00
             901.00,408.00 901.00,374.00 901.00,374.00
             901.00,374.00 901.66,363.00 901.66,363.00
             901.66,363.00 901.08,356.00 901.08,356.00
             901.08,356.00 902.00,345.00 902.00,345.00
             902.00,345.00 902.00,325.00 902.00,325.00
             902.00,325.00 902.96,313.00 902.96,313.00
             902.96,313.00 902.96,296.00 902.96,296.00
             892.88,297.54 881.38,312.65 876.05,321.00
             864.82,338.62 865.26,348.25 863.91,368.00
             863.91,368.00 863.09,375.00 863.09,375.00
             863.09,375.00 862.30,400.00 862.30,400.00
             862.30,400.00 862.30,417.00 862.30,417.00
             862.30,417.00 862.30,426.00 862.30,426.00
             862.69,442.78 866.89,456.37 886.00,457.82
             904.68,459.23 918.62,438.58 932.00,429.00
             934.25,441.53 932.02,442.73 932.00,454.00
             931.99,463.32 933.28,474.26 930.00,483.00
             920.77,479.00 914.79,474.00 904.00,476.93
             884.88,482.10 880.96,508.67 891.39,520.91
             897.42,527.99 906.30,529.09 915.00,529.00
             924.56,528.89 934.04,525.92 942.00,520.64
             945.23,518.51 955.35,510.30 958.00,509.71
             960.89,509.08 966.10,512.05 969.00,513.19
             975.31,515.66 987.43,520.29 994.00,519.82
             1013.84,518.38 1036.27,500.67 1031.00,479.00 Z
           M 385.00,392.00
           C 388.36,378.01 378.42,372.64 376.21,365.00
             376.21,365.00 376.21,335.00 376.21,335.00
             376.00,331.83 375.68,321.03 381.83,324.08
             384.71,325.50 386.64,330.16 387.79,333.00
             390.90,340.67 392.77,347.92 394.40,356.00
             399.81,382.88 397.21,406.76 390.37,433.00
             387.92,442.39 383.88,456.03 376.00,462.00
             373.73,454.94 374.92,449.19 375.00,442.00
             375.00,442.00 376.00,388.00 376.00,388.00
             376.00,388.00 385.00,392.00 385.00,392.00 Z
           M 332.00,508.00
           C 315.17,511.02 298.53,510.94 283.00,502.68
             247.00,483.52 227.89,437.54 242.81,399.00
             245.74,391.42 249.65,384.05 255.17,378.01
             268.69,363.23 293.36,355.54 313.00,358.75
             318.08,359.59 330.33,361.52 332.98,366.13
             334.20,368.25 334.00,371.59 334.00,374.00
             334.00,374.00 333.00,394.00 333.00,394.00
             333.00,394.00 333.00,444.00 333.00,444.00
             333.00,444.00 332.00,461.00 332.00,461.00
             332.00,461.00 332.00,508.00 332.00,508.00 Z
           M 764.00,434.00
           C 764.00,434.00 764.00,392.00 764.00,392.00
             764.14,380.49 766.93,372.62 775.44,364.47
             780.54,359.58 787.05,357.29 792.47,363.22
             798.22,369.51 797.09,380.97 797.00,389.00
             796.81,404.88 789.64,418.53 777.00,428.10
             772.35,431.62 769.86,433.37 764.00,434.00 Z
           M 321.00,496.00
           C 321.00,496.00 321.00,450.00 321.00,450.00
             321.00,450.00 321.00,400.00 321.00,400.00
             320.84,391.76 316.39,391.35 309.00,391.04
             299.03,390.62 288.40,394.72 281.62,402.17
             272.18,412.54 270.25,429.64 271.85,443.00
             273.87,459.94 275.35,474.76 289.00,486.82
             294.14,491.35 298.37,493.65 305.00,495.25
             310.23,496.51 315.68,496.31 321.00,496.00 Z
           M 850.00,435.00
           C 848.43,435.25 847.55,435.22 846.04,436.02
             843.09,437.58 837.27,444.38 837.54,447.90
             837.78,451.03 841.71,452.55 844.00,454.10
             848.29,457.01 850.41,459.53 852.96,464.00
             861.15,478.38 858.91,494.43 861.44,510.00
             862.08,513.99 864.44,524.91 868.34,526.62
             871.07,527.82 875.40,525.64 876.31,522.87
             877.06,520.59 874.51,512.36 874.17,509.00
             873.29,500.21 874.81,492.84 878.78,485.00
             880.44,481.71 883.12,478.14 880.42,474.67
             877.63,471.08 866.96,465.27 863.02,461.79
             855.71,455.34 851.89,444.34 850.00,435.00 Z
           M 653.00,478.00
           C 653.00,484.68 652.65,489.54 655.09,496.00
             655.82,497.92 657.00,500.69 659.21,501.26
             663.55,502.36 670.45,493.17 669.29,489.17
             668.02,484.78 657.23,479.23 653.00,478.00 Z
           M 907.00,487.65
           C 912.11,486.64 923.07,488.66 924.13,495.02
             925.01,500.31 915.50,507.12 911.00,508.36
             903.42,510.46 896.67,504.99 898.40,497.00
             899.48,491.98 902.52,489.55 907.00,487.65 Z
           M 418.00,498.00
           C 411.88,499.98 411.08,504.13 411.05,510.00
             411.05,510.00 411.05,526.00 411.05,526.00
             411.05,526.00 412.00,538.00 412.00,538.00
             412.00,538.00 412.00,561.00 412.00,561.00
             411.94,565.72 410.63,579.54 409.53,584.00
             408.77,587.03 405.81,595.19 406.69,597.79
             407.83,601.12 416.74,604.07 420.00,605.40
             431.06,609.90 441.38,613.74 453.00,616.63
             457.25,617.68 463.85,619.38 468.00,618.00
             458.46,612.90 435.77,598.24 429.78,590.00
             423.91,581.91 420.12,569.99 420.00,560.00
             420.00,560.00 419.00,541.00 419.00,541.00
             419.00,541.00 419.00,514.00 419.00,514.00
             419.00,514.00 418.00,498.00 418.00,498.00 Z
           M 836.00,624.00
           C 837.74,616.83 836.99,602.03 837.00,594.00
             837.00,594.00 838.24,579.00 838.24,579.00
             838.46,574.37 841.30,567.08 838.24,563.38
             836.90,561.46 830.42,557.84 828.00,556.32
             818.13,550.14 808.53,546.30 800.00,537.99
             792.26,530.43 789.00,526.21 785.24,516.00
             784.43,513.82 783.65,508.68 780.23,510.17
             778.32,510.99 773.06,517.14 771.43,518.96
             767.09,523.81 762.36,528.52 757.00,532.23
             753.97,534.32 749.83,536.99 746.00,536.26
             741.33,535.37 731.98,528.22 728.00,525.21
             725.50,523.32 722.52,520.53 719.33,522.65
             717.54,523.85 715.15,528.08 713.79,530.00
             713.79,530.00 704.83,541.00 704.83,541.00
             693.18,553.90 685.50,560.52 670.00,568.25
             665.09,570.70 659.39,573.34 654.00,574.48
             645.70,576.25 634.68,573.80 627.00,570.48
             622.54,568.55 618.06,564.32 613.00,565.00
             613.00,565.00 637.00,585.41 637.00,585.41
             641.50,589.21 647.67,593.42 649.85,599.00
             654.52,610.92 647.14,629.26 642.00,640.00
             651.10,636.52 662.75,626.14 673.00,628.39
             678.51,629.60 687.09,637.10 692.00,640.57
             694.14,642.09 698.01,645.07 700.78,644.27
             703.23,643.57 704.33,640.09 705.31,638.00
             705.31,638.00 712.43,624.00 712.43,624.00
             719.91,610.99 730.44,599.95 744.00,593.27
             758.99,585.89 778.53,588.78 793.00,596.12
             793.00,596.12 812.00,608.42 812.00,608.42
             818.13,612.76 829.61,622.66 836.00,624.00 Z
           M 884.00,596.00
           C 884.00,596.00 884.00,563.00 884.00,563.00
             884.00,563.00 885.00,549.00 885.00,549.00
             885.03,546.45 885.45,538.39 883.98,536.61
             881.53,533.66 875.35,537.55 873.00,539.10
             865.47,544.10 857.30,554.51 854.06,563.00
             851.63,569.40 850.08,578.15 850.00,585.00
             850.00,585.00 849.00,603.00 849.00,603.00
             849.00,603.00 849.00,633.00 849.00,633.00
             848.98,646.76 842.13,658.12 835.69,670.00
             835.69,670.00 813.67,705.00 813.67,705.00
             807.56,714.15 797.20,728.04 788.00,733.87
             777.54,740.49 767.40,737.29 760.04,727.96
             753.30,719.41 749.13,701.82 749.00,691.00
             749.00,691.00 749.00,680.00 749.00,680.00
             749.16,666.51 754.31,642.40 761.47,631.00
             767.87,620.80 777.77,618.83 784.52,630.00
             789.59,638.39 788.64,651.72 786.80,661.00
             786.10,664.51 783.12,673.64 785.75,676.25
             789.36,679.83 794.89,674.77 797.07,671.96
             802.55,664.88 806.30,650.90 805.90,642.00
             804.79,617.83 788.13,598.44 763.00,599.01
             748.74,599.34 738.11,608.45 729.46,619.00
             718.34,632.58 710.03,654.36 709.76,672.00
             709.76,672.00 709.76,687.00 709.76,687.00
             709.76,687.00 712.79,717.00 712.79,717.00
             712.27,720.90 709.53,726.42 707.75,730.00
             702.67,740.24 696.26,754.07 687.96,761.90
             686.74,763.05 685.45,764.13 684.00,764.99
             673.33,771.33 671.01,759.80 671.00,752.00
             671.00,752.00 671.00,707.00 671.00,707.00
             671.00,707.00 671.00,677.00 671.00,677.00
             671.00,677.00 671.00,649.00 671.00,649.00
             671.00,647.04 671.23,643.16 669.98,641.60
             666.23,636.95 654.89,645.41 652.00,648.09
             641.69,657.67 636.17,670.96 636.00,685.00
             636.00,685.00 635.18,702.00 635.18,702.00
             635.18,702.00 635.85,711.00 635.85,711.00
             635.85,711.00 635.85,737.00 635.85,737.00
             635.85,737.00 635.85,746.00 635.85,746.00
             636.06,758.72 634.81,764.21 627.64,775.00
             625.83,777.73 623.20,781.48 620.83,783.67
             619.70,784.71 618.32,785.74 617.00,786.52
             611.49,789.74 607.18,787.75 604.70,782.00
             603.44,779.08 601.90,761.44 602.09,758.00
             602.09,758.00 602.96,751.00 602.96,751.00
             602.96,751.00 602.96,736.00 602.96,736.00
             602.96,736.00 602.00,712.00 602.00,712.00
             602.00,712.00 603.00,699.00 603.00,699.00
             603.11,689.65 604.53,667.62 601.00,660.00
             595.15,662.24 591.58,664.80 587.00,669.09
             581.29,674.45 574.20,683.56 571.55,691.00
             567.30,702.89 568.00,729.59 568.00,743.00
             568.00,743.00 568.00,768.00 568.00,768.00
             568.00,768.00 568.91,778.00 568.91,778.00
             570.19,795.52 574.06,810.50 595.00,810.99
             612.84,811.40 632.51,798.26 638.00,781.00
             638.00,781.00 641.00,781.00 641.00,781.00
             648.73,797.33 672.51,798.30 686.00,789.17
             704.12,776.90 711.11,750.17 721.00,738.00
             739.95,764.44 778.05,759.08 801.00,741.32
             808.70,735.36 817.37,724.12 822.98,716.00
             822.98,716.00 837.58,694.00 837.58,694.00
             840.56,689.20 842.73,683.77 847.00,680.00
             847.00,680.00 847.00,706.00 847.00,706.00
             847.00,706.00 846.04,716.00 846.04,716.00
             846.04,716.00 846.04,729.00 846.04,729.00
             846.01,730.77 845.86,733.97 847.02,735.39
             848.46,737.14 851.11,736.55 853.00,736.07
             858.05,734.79 864.11,731.23 868.00,727.82
             872.46,723.91 876.43,719.67 878.45,714.00
             879.80,710.23 880.15,703.77 881.93,701.27
             883.42,699.19 885.69,698.46 888.00,697.67
             895.03,695.28 898.87,695.38 904.99,699.93
             916.34,708.36 918.67,723.18 921.89,736.00
             925.54,750.50 934.06,768.53 949.00,773.91
             953.31,775.47 956.45,775.94 961.00,775.77
             964.59,776.04 969.55,776.16 973.00,775.77
             987.36,772.95 999.34,761.50 1004.14,748.00
             1006.39,741.67 1008.06,733.71 1006.66,727.00
             1006.03,723.99 1003.89,720.37 1000.22,721.66
             996.22,723.05 996.32,730.54 995.48,734.00
             993.07,743.91 979.00,759.87 968.04,752.30
             960.61,747.17 958.51,737.20 956.65,729.00
             952.44,710.41 952.28,690.44 932.00,681.87
             927.01,679.77 923.37,679.12 918.00,679.00
             919.60,673.54 922.77,671.26 926.42,667.00
             926.42,667.00 942.68,648.00 942.68,648.00
             946.34,643.58 950.00,637.09 952.77,632.00
             960.58,617.63 963.19,611.62 963.00,595.00
             962.92,588.75 961.04,579.11 957.36,574.00
             946.82,559.36 924.45,561.11 911.00,570.44
             898.43,579.16 894.24,588.67 884.00,596.00 Z
           M 296.00,590.46
           C 303.20,589.47 313.89,589.70 321.00,591.21
             323.70,591.78 328.47,592.73 330.42,594.70
             332.48,596.79 332.89,601.21 332.68,604.00
             331.38,621.13 322.20,631.46 306.00,636.66
             301.55,638.08 297.73,639.18 293.00,638.91
             289.49,638.71 283.25,637.54 280.00,636.24
             277.33,635.16 274.28,633.35 272.09,631.48
             270.17,629.84 268.78,628.16 267.48,626.00
             257.10,608.65 281.76,593.63 296.00,590.46 Z
           M 545.00,606.00
           C 545.00,606.00 527.00,600.88 527.00,600.88
             527.00,600.88 516.00,608.82 516.00,608.82
             516.00,608.82 499.00,621.00 499.00,621.00
             510.66,620.99 522.04,618.13 533.00,614.31
             538.14,612.51 543.18,611.53 545.00,606.00 Z
           M 883.00,686.00
           C 881.34,680.17 882.00,673.10 882.00,667.00
             882.00,667.00 882.72,637.00 882.72,637.00
             883.39,631.28 881.89,626.94 885.43,622.00
             890.15,615.40 901.28,605.23 909.00,602.57
             915.94,600.19 922.93,603.72 924.80,611.00
             925.08,613.07 925.02,616.79 924.80,619.00
             924.77,639.00 914.20,657.67 900.91,672.00
             895.78,677.54 890.36,683.65 883.00,686.00 Z
           M 313.00,617.00
           C 306.52,617.06 298.19,617.13 300.00,626.00
             305.90,624.24 310.98,623.49 313.00,617.00 Z
           M 405.00,851.00
           C 389.58,850.66 379.43,841.24 370.08,830.00
             358.83,816.47 350.31,800.60 342.26,785.00
             338.24,777.22 331.90,763.44 326.69,757.00
             323.49,753.06 319.45,749.03 315.00,746.53
             305.04,740.93 289.84,741.02 282.65,751.02
             280.77,753.63 277.73,760.41 280.03,763.40
             281.36,765.14 286.64,765.48 289.00,766.22
             293.57,767.65 297.26,770.09 301.00,773.02
             311.95,781.60 322.45,797.83 331.21,809.00
             331.21,809.00 351.72,834.00 351.72,834.00
             363.79,847.90 370.98,857.04 389.00,863.77
             399.16,867.57 415.17,870.23 426.00,869.99
             426.00,869.99 443.00,867.92 443.00,867.92
             452.06,866.42 459.26,865.12 468.00,861.95
             504.96,848.51 536.52,816.11 537.00,775.00
             537.41,739.82 536.23,706.69 508.83,680.73
             493.52,666.22 472.73,661.03 452.00,661.00
             452.00,661.00 439.00,661.00 439.00,661.00
             409.89,661.05 373.47,679.19 360.49,706.00
             348.62,730.51 349.87,753.33 372.00,771.54
             379.26,777.52 383.36,779.93 392.00,783.40
             395.52,784.81 402.90,787.02 404.83,790.22
             406.52,793.03 406.02,801.46 406.00,805.00
             406.00,805.00 405.00,820.00 405.00,820.00
             405.00,820.00 405.00,851.00 405.00,851.00 Z
           M 563.00,680.00
           C 563.00,680.00 552.00,681.00 552.00,681.00
             555.99,688.52 559.91,686.67 563.00,680.00 Z
           M 462.00,733.00
           C 460.62,738.87 457.00,746.24 453.08,750.81
             451.65,752.48 448.19,755.79 446.02,753.35
             444.97,752.16 445.03,749.50 445.00,748.00
             445.00,748.00 445.00,724.00 445.00,724.00
             445.00,724.00 446.00,706.00 446.00,706.00
             446.00,706.00 446.00,692.00 446.00,692.00
             446.02,681.02 448.00,683.50 458.00,684.00
             467.75,684.49 477.25,688.86 483.90,696.01
             493.57,706.41 495.71,723.37 497.16,737.00
             497.16,737.00 499.00,760.00 499.00,760.00
             499.00,760.00 498.09,770.00 498.09,770.00
             496.56,791.92 493.22,810.51 478.54,827.99
             472.55,835.11 462.91,841.24 454.00,844.16
             451.65,844.68 445.89,846.56 444.02,844.16
             442.59,842.67 442.98,835.40 443.00,833.00
             443.00,833.00 443.98,822.00 443.98,822.00
             443.98,822.00 443.98,805.00 443.98,805.00
             443.98,805.00 444.82,793.00 444.82,793.00
             444.57,789.28 443.67,785.85 445.51,782.21
             446.84,779.58 455.09,773.59 457.83,770.83
             467.24,761.37 474.46,742.99 462.00,733.00 Z
           M 408.00,686.00
           C 408.00,686.00 408.00,720.00 408.00,720.00
             408.00,720.00 407.00,737.00 407.00,737.00
             407.00,737.00 407.00,764.00 407.00,764.00
             407.00,766.07 407.22,769.83 405.98,771.53
             404.06,774.15 399.65,772.99 397.00,772.33
             388.88,770.31 381.40,765.40 376.09,758.99
             355.61,734.21 376.81,688.81 408.00,686.00 Z
           M 785.14,694.00
           C 785.14,694.00 785.14,702.00 785.14,702.00
             785.64,704.90 786.43,711.48 789.39,712.83
             793.35,714.63 799.55,705.89 798.37,702.30
             796.98,698.05 789.08,694.57 785.14,694.00 Z
           M 510.00,965.00
           C 532.17,965.00 540.90,962.64 562.00,958.28
             562.00,958.28 595.00,950.28 595.00,950.28
             595.00,950.28 614.00,943.67 614.00,943.67
             646.58,933.05 678.50,920.87 710.00,907.43
             710.00,907.43 739.00,895.69 739.00,895.69
             766.29,883.42 782.17,873.44 812.00,863.81
             832.76,857.10 853.56,850.46 875.00,846.20
             887.50,843.72 904.41,841.12 909.20,857.00
             910.32,860.71 909.93,865.12 910.00,869.00
             910.04,870.84 909.98,873.00 911.02,874.61
             912.77,877.30 920.37,879.65 923.42,878.85
             926.04,878.17 929.49,874.53 932.00,872.85
             936.47,869.86 940.66,868.76 946.00,869.04
             954.77,869.50 961.53,876.74 963.47,885.00
             966.81,899.17 962.29,912.36 969.27,926.00
             978.56,944.14 994.64,939.61 1008.00,948.13
             1022.44,957.34 1027.00,976.97 1027.91,993.00
             1028.20,998.21 1026.22,1011.43 1023.73,1015.96
             1021.80,1019.47 1019.73,1020.09 1017.53,1024.04
             1013.67,1030.97 1012.45,1037.20 1004.00,1040.44
             999.47,1042.18 987.65,1044.84 983.00,1043.57
             980.38,1042.85 975.59,1039.75 977.17,1036.43
             978.65,1033.31 985.39,1034.03 989.96,1031.43
             996.79,1027.56 994.83,1023.29 996.03,1017.00
             996.49,1014.59 997.71,1011.38 997.08,1009.01
             996.35,1006.31 993.96,1004.51 991.98,1002.72
             986.86,998.06 985.31,995.15 978.00,994.98
             976.77,994.71 975.45,994.59 974.30,994.98
             972.09,996.34 971.38,999.79 970.71,1002.00
             969.10,1007.31 967.18,1012.19 964.38,1017.00
             957.65,1028.60 952.46,1029.42 947.32,1039.00
             941.79,1049.31 940.04,1067.93 931.67,1075.45
             928.16,1078.60 922.43,1079.93 918.00,1081.42
             912.19,1083.37 912.74,1082.80 907.00,1082.93
             903.18,1082.92 892.48,1085.40 889.62,1082.93
             887.24,1080.97 889.54,1078.04 891.15,1076.46
             896.73,1070.99 900.73,1069.42 906.24,1062.00
             910.09,1056.81 913.67,1049.65 912.79,1043.00
             912.79,1043.00 903.75,1019.00 903.75,1019.00
             903.75,1019.00 901.00,998.00 901.00,998.00
             901.00,998.00 885.00,1005.21 885.00,1005.21
             885.00,1005.21 874.00,1006.51 874.00,1006.51
             869.36,1007.46 866.04,1009.24 861.00,1008.81
             855.05,1008.31 854.31,1006.21 846.00,1006.00
             841.82,1005.90 834.83,1005.21 831.05,1003.52
             828.97,1002.59 826.53,1000.96 828.07,998.37
             829.08,996.68 834.99,993.98 837.00,992.85
             837.00,992.85 858.00,980.31 858.00,980.31
             866.44,974.87 871.95,971.50 878.91,964.00
             885.22,957.21 886.77,951.61 895.00,946.63
             901.50,942.70 911.56,939.65 919.00,937.88
             923.14,936.90 930.58,935.91 933.83,933.44
             936.04,931.76 938.28,928.52 939.47,926.00
             941.87,920.79 943.46,912.02 939.47,907.21
             937.69,905.03 935.21,904.01 933.01,902.37
             933.01,902.37 925.83,895.98 925.83,895.98
             925.83,895.98 910.00,891.00 910.00,891.00
             910.00,891.00 913.00,917.00 913.00,917.00
             913.00,917.00 897.00,917.00 897.00,917.00
             876.75,917.03 839.59,928.55 821.00,937.03
             821.00,937.03 812.00,941.68 812.00,941.68
             812.00,941.68 786.00,952.86 786.00,952.86
             786.00,952.86 754.00,967.69 754.00,967.69
             754.00,967.69 726.00,979.42 726.00,979.42
             726.00,979.42 704.00,989.57 704.00,989.57
             704.00,989.57 667.00,1004.58 667.00,1004.58
             667.00,1004.58 650.00,1010.42 650.00,1010.42
             650.00,1010.42 617.00,1022.92 617.00,1022.92
             617.00,1022.92 584.00,1032.42 584.00,1032.42
             572.58,1035.76 551.61,1041.33 540.00,1040.96
             534.77,1040.79 525.68,1038.38 521.00,1036.09
             515.73,1033.50 514.75,1030.31 511.91,1029.23
             510.19,1028.57 502.93,1030.16 501.05,1030.85
             496.02,1032.71 495.89,1038.80 487.00,1042.64
             481.11,1045.18 476.68,1043.05 470.00,1044.76
             461.73,1046.88 451.02,1053.79 444.00,1058.72
             432.90,1066.51 415.55,1082.32 403.00,1085.49
             397.91,1086.77 395.96,1086.39 391.00,1086.08
             388.65,1085.94 385.27,1085.65 383.21,1086.88
             378.86,1089.48 378.32,1096.84 371.01,1096.12
             368.10,1095.83 367.51,1095.26 366.00,1093.00
             361.73,1094.53 358.74,1096.62 354.02,1095.27
             348.21,1093.62 347.25,1087.20 349.61,1084.56
             351.57,1082.36 359.97,1080.47 363.00,1080.00
             362.24,1078.66 362.20,1077.96 360.71,1077.02
             358.14,1075.40 346.61,1076.01 343.00,1076.00
             340.18,1076.00 336.58,1076.20 334.06,1074.83
             330.78,1073.03 326.83,1062.71 326.22,1059.00
             326.22,1059.00 325.54,1050.00 325.54,1050.00
             324.95,1046.65 321.90,1035.31 326.42,1033.68
             329.52,1032.56 334.70,1038.34 337.00,1040.19
             342.84,1044.90 353.20,1051.70 361.00,1051.50
             365.96,1051.37 375.55,1042.97 375.41,1038.00
             375.18,1029.83 358.89,1026.27 354.74,1019.96
             352.49,1016.54 353.52,1014.02 351.55,1010.00
             349.51,1005.83 344.20,1000.90 342.25,995.00
             340.15,988.65 343.01,986.78 342.87,981.00
             342.87,981.00 340.04,964.00 340.04,964.00
             339.83,958.63 341.01,947.80 348.90,954.31
             351.29,956.29 356.24,963.99 358.42,967.00
             363.52,974.04 369.37,981.05 376.00,986.70
             378.78,989.07 386.10,994.46 389.90,993.87
             392.68,993.45 394.28,990.10 395.77,988.00
             404.63,975.44 400.45,978.63 404.67,971.04
             406.93,966.99 409.75,966.07 412.82,962.90
             416.13,959.47 417.79,955.72 422.01,952.28
             425.64,949.31 427.60,949.69 431.00,947.46
             435.23,944.68 438.76,940.25 444.00,939.28
             446.17,938.88 449.35,938.94 450.36,941.31
             451.39,943.72 448.83,951.20 448.13,954.00
             446.05,962.27 444.10,973.51 444.00,982.00
             443.81,998.53 444.40,999.49 439.00,1016.00
             437.88,1019.43 434.90,1026.55 437.61,1029.64
             440.38,1032.80 445.13,1029.74 448.00,1028.22
             448.00,1028.22 474.00,1010.81 474.00,1010.81
             479.15,1008.24 485.39,1006.97 491.00,1008.85
             496.84,1010.81 498.90,1015.34 505.98,1013.28
             512.56,1011.36 511.99,1004.59 511.92,999.00
             511.92,999.00 511.92,985.00 511.92,985.00
             510.94,975.72 510.00,975.94 510.00,965.00 Z
           M 878.00,849.29
           C 878.00,849.29 853.00,855.12 853.00,855.12
             805.48,867.59 777.00,881.55 733.00,901.69
             733.00,901.69 716.00,908.86 716.00,908.86
             716.00,908.86 687.00,921.99 687.00,921.99
             668.98,929.46 622.05,945.71 603.00,951.41
             582.64,957.50 561.89,962.47 541.00,966.39
             541.00,966.39 523.00,968.42 523.00,968.42
             521.39,968.65 517.81,969.03 516.60,970.02
             513.69,972.37 515.95,982.24 516.00,986.00
             516.00,986.00 516.00,1004.00 516.00,1004.00
             516.14,1011.79 518.47,1011.84 518.56,1016.00
             518.44,1020.07 514.85,1023.92 518.56,1028.79
             524.72,1036.52 542.21,1036.98 551.00,1035.46
             551.00,1035.46 564.00,1033.72 564.00,1033.72
             580.27,1030.37 604.98,1022.27 621.00,1016.66
             621.00,1016.66 643.00,1008.23 643.00,1008.23
             643.00,1008.23 714.00,980.57 714.00,980.57
             714.00,980.57 752.00,963.31 752.00,963.31
             752.00,963.31 782.00,950.69 782.00,950.69
             782.00,950.69 803.00,940.47 803.00,940.47
             826.66,929.57 854.22,918.40 880.00,914.58
             880.00,914.58 894.00,913.00 894.00,913.00
             897.27,912.97 904.02,913.61 906.40,911.26
             908.71,908.98 907.49,904.84 907.15,902.00
             907.15,902.00 905.79,887.00 905.79,887.00
             905.79,887.00 903.91,879.00 903.91,879.00
             903.87,875.56 907.13,871.44 905.82,861.00
             904.04,846.88 888.69,848.29 878.00,849.29 Z
           M 863.03,908.00
           C 855.93,905.71 856.01,900.39 856.06,894.00
             856.06,894.00 856.06,872.00 856.06,872.00
             855.97,869.79 855.35,864.96 856.06,863.21
             858.29,858.81 867.53,856.76 872.00,857.10
             873.72,857.22 875.43,857.53 876.98,858.31
             891.26,865.54 875.07,885.07 874.63,890.00
             874.26,893.98 879.95,902.18 882.00,906.00
             879.29,905.91 877.47,906.01 875.09,904.40
             873.00,902.98 864.13,890.60 863.03,903.00
             863.03,903.00 863.03,908.00 863.03,908.00 Z
           M 864.00,889.00
           C 870.42,885.94 874.89,878.89 876.23,872.00
             876.96,869.86 877.42,865.42 876.23,863.60
             873.91,860.98 863.51,861.45 862.40,867.06
             862.40,867.06 863.00,882.00 863.00,882.00
             863.05,885.06 863.16,886.05 864.00,889.00 Z
           M 825.00,921.00
           C 817.40,919.71 817.86,914.44 818.01,908.00
             818.01,908.00 820.61,884.00 820.61,884.00
             821.14,881.13 821.96,876.44 823.72,874.15
             829.87,866.20 836.20,877.87 837.91,883.00
             837.91,883.00 841.13,896.00 841.13,896.00
             842.58,901.78 844.50,907.03 845.00,913.00
             837.10,911.71 838.74,907.79 834.79,906.23
             833.13,905.58 831.50,906.16 830.04,907.02
             824.47,910.32 825.00,915.42 825.00,921.00 Z
           M 908.00,878.00
           C 906.41,887.46 919.07,891.83 922.71,890.22
             925.36,889.05 926.49,883.60 920.94,881.71
             920.94,881.71 916.00,880.52 916.00,880.52
             916.00,880.52 908.00,878.00 908.00,878.00 Z
           M 944.74,882.70
           C 945.40,882.00 945.52,880.65 944.35,879.26
             943.09,879.09 942.57,879.09 941.61,879.52
             940.87,880.30 940.02,882.00 941.17,883.39
             943.43,883.96 944.09,883.37 944.74,882.70 Z
           M 831.00,883.00
           C 831.00,883.00 828.00,883.00 828.00,883.00
             826.98,888.68 825.46,895.41 827.00,901.00
             838.21,896.96 833.65,894.60 831.00,883.00 Z
           M 792.00,884.36
           C 793.87,884.26 795.04,883.96 797.00,884.36
             811.49,885.32 802.60,903.62 802.69,906.00
             802.81,909.41 805.76,911.47 806.53,915.00
             808.11,922.26 799.60,932.37 793.00,934.35
             782.45,937.51 782.19,926.01 781.99,919.00
             781.99,919.00 781.17,910.00 781.17,910.00
             781.17,910.00 781.17,901.00 781.17,901.00
             781.14,897.79 780.44,893.18 782.17,890.33
             784.09,887.18 788.68,885.69 792.00,884.36 Z
           M 789.01,909.00
           C 794.62,906.91 801.23,897.57 799.67,891.24
             798.52,886.62 790.76,889.70 789.01,892.39
             786.98,895.54 787.99,905.45 789.01,909.00 Z
           M 760.00,934.00
           C 768.52,932.11 767.50,942.30 765.40,944.40
             762.34,947.47 756.09,944.74 753.30,946.19
             751.06,947.35 750.56,950.54 749.00,952.96
             746.44,956.92 740.84,960.63 736.00,960.63
             734.03,960.64 731.78,959.94 730.01,959.08
             722.73,955.55 720.95,948.35 722.93,941.00
             723.84,937.61 725.89,934.58 725.27,931.00
             725.27,931.00 723.25,924.00 723.25,924.00
             722.66,918.15 727.15,912.12 733.00,911.24
             740.89,910.05 746.78,920.07 738.00,923.00
             737.93,920.77 738.03,918.14 735.77,916.82
             732.62,914.99 728.82,918.94 728.74,922.00
             728.62,926.92 735.44,927.71 733.85,931.77
             733.02,933.86 726.01,939.31 727.43,947.00
             729.64,958.99 740.94,957.20 746.00,948.00
             746.00,948.00 739.00,946.00 739.00,946.00
             742.82,935.10 752.60,939.71 761.00,941.00
             761.00,941.00 760.00,934.00 760.00,934.00 Z
           M 802.00,914.00
           C 789.07,910.45 786.53,920.83 789.00,931.00
             797.27,927.76 800.29,922.34 802.00,914.00 Z
           M 982.00,1037.00
           C 984.45,1043.77 991.95,1040.09 997.00,1038.75
             999.84,1038.00 1002.44,1037.90 1004.98,1036.26
             1010.74,1032.57 1011.48,1027.31 1014.41,1022.00
             1018.94,1013.80 1023.60,1013.07 1023.99,997.00
             1024.38,980.28 1019.92,957.86 1004.00,949.32
             994.62,944.29 985.61,945.10 978.00,940.64
             973.53,938.01 970.11,933.40 967.47,929.00
             966.48,927.35 964.96,923.80 963.51,922.78
             962.63,922.17 961.99,922.07 960.95,922.07
             964.02,922.07 943.44,925.05 946.10,924.31
             942.81,925.22 935.88,935.80 933.05,939.00
             919.83,953.93 904.77,984.77 905.00,1005.00
             905.18,1020.85 910.94,1027.44 916.19,1041.00
             917.23,1043.69 918.93,1051.59 922.05,1051.97
             924.07,1052.22 925.87,1050.14 927.17,1048.90
             927.17,1048.90 939.00,1038.15 939.00,1038.15
             950.25,1028.30 957.45,1025.83 964.14,1011.00
             970.77,996.27 969.18,987.58 972.90,973.00
             974.91,965.10 978.07,959.51 987.00,959.04
             1008.58,957.91 1019.71,977.62 1017.83,997.00
             1015.80,1017.98 1003.53,1033.67 982.00,1037.00 Z
           M 692.00,954.76
           C 688.56,961.51 678.69,961.95 679.65,970.99
             680.52,979.08 687.08,974.85 691.98,974.32
             694.09,974.09 698.08,974.41 696.60,977.66
             695.65,979.75 692.00,981.15 690.00,981.97
             684.93,984.12 678.90,988.04 675.09,981.97
             670.75,975.01 671.90,958.13 672.00,950.00
             672.02,947.54 671.75,942.18 672.60,940.10
             674.19,936.21 682.12,933.07 686.00,931.90
             687.82,931.35 695.00,930.45 692.83,934.64
             692.02,936.21 689.51,937.14 688.00,937.86
             685.29,939.13 681.76,940.52 680.17,943.21
             678.19,946.58 678.26,953.70 683.06,954.76
             686.03,955.03 686.36,953.52 692.00,954.76 Z
           M 637.00,1001.00
           C 631.57,999.21 631.39,996.22 630.93,991.00
             630.93,991.00 630.93,962.00 630.93,962.00
             631.05,959.59 630.99,957.37 632.60,955.39
             635.17,952.23 646.94,948.05 650.86,949.61
             652.88,950.41 653.06,951.33 654.00,953.00
             649.55,954.89 634.20,959.30 639.03,966.68
             641.16,969.95 652.79,967.13 649.83,972.49
             648.44,975.01 641.43,975.22 639.02,979.22
             639.02,979.22 637.00,1001.00 637.00,1001.00 Z
           M 588.00,1017.00
           C 584.55,1013.86 584.15,1012.65 584.02,1008.00
             583.80,1000.76 586.60,983.04 588.72,976.00
             589.83,972.31 591.97,966.07 596.09,964.84
             602.33,962.99 605.56,972.60 606.86,977.00
             606.86,977.00 610.27,991.00 610.27,991.00
             611.81,997.11 612.94,1002.68 613.00,1009.00
             606.33,1006.49 607.98,1003.17 603.87,1001.48
             602.11,1000.73 599.80,1001.05 598.00,1001.48
             588.97,1003.83 590.88,1010.08 588.00,1017.00 Z
           M 565.00,1008.00
           C 570.00,1009.76 568.94,1012.74 567.12,1017.00
             564.92,1022.15 561.09,1026.79 555.00,1026.79
             547.97,1026.79 544.28,1020.82 542.06,1015.00
             537.90,1004.02 538.63,983.16 549.04,975.65
             558.04,969.16 570.88,977.96 568.00,991.00
             568.00,991.00 565.00,991.00 565.00,991.00
             561.83,983.26 555.56,974.54 550.11,987.00
             547.68,992.56 547.11,1005.19 548.79,1011.00
             550.88,1018.24 556.36,1023.50 561.65,1014.98
             561.65,1014.98 565.00,1008.00 565.00,1008.00 Z
           M 599.00,974.00
           C 599.00,974.00 597.00,974.00 597.00,974.00
             593.66,981.62 592.02,988.69 592.00,997.00
             594.80,996.47 601.30,995.59 603.01,993.30
             605.87,989.47 600.94,977.79 599.00,974.00 Z
           M 433.04,975.54
           C 424.70,978.77 427.60,987.83 426.71,995.00
             425.13,1007.87 418.28,1022.33 411.05,1033.00
             410.11,1034.37 409.15,1035.65 407.90,1036.71
             400.24,1043.61 395.99,1034.32 388.00,1036.71
             379.74,1039.06 373.97,1049.00 367.00,1054.07
             367.00,1054.07 356.04,1060.51 356.04,1060.51
             353.03,1065.08 359.85,1070.44 363.00,1072.70
             370.81,1078.32 389.50,1084.45 399.00,1082.32
             415.29,1078.66 430.41,1064.18 444.00,1054.72
             448.23,1051.78 457.65,1048.11 456.14,1042.00
             455.47,1039.28 452.93,1032.96 449.87,1032.42
             445.54,1031.64 437.48,1038.92 433.74,1029.00
             432.15,1024.78 434.64,1018.13 436.00,1014.00
             438.90,1005.22 441.20,998.42 440.99,989.00
             440.85,982.94 440.52,975.74 433.04,975.54 Z
           M 911.00,1004.00
           C 914.54,1003.81 927.24,1001.06 929.70,1002.23
             935.16,1004.82 930.74,1017.23 928.73,1020.98
             927.62,1023.04 926.07,1026.01 923.24,1024.83
             921.86,1024.26 918.37,1020.52 917.17,1019.28
             915.41,1017.48 914.16,1016.21 912.92,1013.96
             910.93,1010.36 911.04,1007.94 911.00,1004.00 Z
           M 940.00,1027.00
           C 940.00,1027.00 938.04,1009.00 938.04,1009.00
             938.42,1002.52 940.42,1002.14 946.00,1003.42
             946.00,1003.42 952.00,1004.88 952.00,1004.88
             953.91,1005.60 957.58,1007.25 958.31,1009.30
             959.37,1012.27 956.54,1016.77 954.66,1018.91
             953.00,1020.80 951.14,1022.21 949.00,1023.53
             945.71,1025.57 943.75,1026.30 940.00,1027.00 Z
           M 515.00,1016.14
           C 515.00,1016.14 508.00,1016.14 508.00,1016.14
             506.32,1016.49 501.96,1016.97 500.74,1017.99
             498.58,1019.78 498.30,1025.67 502.23,1026.69
             506.13,1027.71 510.15,1024.94 512.35,1021.96
             513.86,1019.92 514.31,1018.35 515.00,1016.14 Z
           M 484.09,1017.91
           C 479.13,1020.67 481.90,1025.11 484.91,1024.26
             487.58,1023.50 489.23,1019.00 484.09,1017.91 Z" />
</svg>
